<?xml version="1.0"?>
<svg xmlns:rdf="http://www.w3.org/1999/02/22-rdf-syntax-ns#" xmlns="http://www.w3.org/2000/svg" xmlns:cc="http://web.resource.org/cc/" xmlns:dc="http://purl.org/dc/elements/1.1/" id="Layer_1" xml:space="preserve" height="218.58" viewBox="0 0 353.963 218.583" width="353.96" version="1.0">
<g id="g5" stroke-linejoin="round" fill-rule="evenodd" stroke="#000" stroke-linecap="round" stroke-miterlimit="10">
		<polygon id="polygon7" stroke-width=".9978" points="216 98.991 251.75 98.991 251.75 117.06 216 117.06"/>
		<polygon id="polygon9" stroke-width=".9978" points="216 109.62 251.75 109.62 251.75 112.26 216 112.26"/>
		<polygon id="polygon11" stroke-width=".9978" points="216 114.25 251.75 114.25 251.75 116.02 216 116.02"/>
		<path id="path13" stroke-width=".036" d="m251.75 98.991c38.47 0.126 47.39 24.649 47.39 50.159 0 25.48-10.31 49.03-47.39 48.97v-18.04c25.04-0.63 30.77-14.28 30.77-31.56s-6.02-30.74-30.77-31.46v-18.069z"/>
		<path id="path15" stroke-width=".036" d="m90.678 55.42c6.085-1.167 17.682-2.428 35.372-3.784 17.81-1.387 50.57-2.806 70.21-4.351 19.55-1.577 30.27-2.87 46.26-4.918 15.98-2.049 35.4-4.289 48.74-7.252 13.27-2.995 22.86-6.968 30.36-10.499 7.47-3.5 12.08-6.936 14.12-10.466-0.09-3.027 0.29-5.644 1.2-7.945 0.88-2.302 2.43-5.296 4.16-5.77 1.77-0.441 4.42-1.451 6.31 3.027 1.89 4.54 3.97 17.466 4.95 23.803 0.98 6.306 0.54 7.377 0.79 13.746 0.28 6.432 0.72 15.48 0.79 24.372 0.06 8.922-0.19 20.524-0.38 28.563-0.19 7.974 0.22 12.704-0.79 19.104s-3.12 15.45-5.23 18.98c-2.12 3.44-5.55 2.52-7.35 1.7-1.77-0.88-2.55-4.6-3.25-6.81-0.72-2.24-1.07-4.32-1.07-6.43-6.05-6.46-16.84-12.26-32.95-17.72-16.2-5.452-40.54-12.105-63.12-14.69-22.63-2.554-46.15-0.095-71.28-0.536-25.22-0.473-62.55-2.238-78.378-2.176-27.398 0.095-41.522 25.252-41.522 47.792 0 24.25 18.034 43.76 42.059 46.92v18.03c-48.207 0.22-65.357-34.21-65.357-71.35-0.002-37.101 25.378-66.454 65.356-71.34z"/>
		<path id="path17" stroke-width=".9978" d="m90.678 190.67c-2.838 0-5.896-0.44-9.301-1.19-3.468-0.89-7.598-2.12-11.066-3.69-3.594-1.61-6.841-3.63-9.868-6.06-3.121-2.74-6.905-8.1-8.418-9.27-1.576-1.07-2.018 0.64-0.725 2.81 1.261 2.08 4.918 6.78 8.544 9.71 3.657 2.87 8.796 5.61 12.989 7.38 4.099 1.58 8.418 2.05 11.508 2.52 2.932 0.47 5.044 0.63 6.337 0.47v-2.68z"/>
		<path id="path19" stroke-width=".036" d="m339.78 13.519c-0.63-1.954-0.79-3.752-0.6-5.265 0.22-1.64 0.91-3.311 1.83-4.036 0.75-0.756 2.39-1.229 3.21-0.189 0.73 0.946 1.2 2.963 1.42 6.053-1.35-1.26-2.46-1.639-3.43-1.009-0.98 0.568-1.83 2.05-2.43 4.446z"/>
		<path id="path21" stroke-width=".036" d="m340.6 119.17c-0.19 2.9-0.03 5.07 0.6 6.65 0.57 1.55 1.98 2.96 3.02 2.43 0.98-0.69 1.93-2.74 2.84-6.27-1.13 1.79-2.17 2.52-3.24 2.04-1.11-0.5-2.18-2.08-3.22-4.85z"/>
		<path id="path23" stroke-width=".036" d="m216.16 67.211c16.27-0.347 32.19-0.41 48.61-0.315 16.34 0.126 37.02-2.018 48.94 0.978 11.72 2.963 17.56 10.152 21.62 16.331 3.95 5.959 3.63 17.245 2.34 19.645-1.42 2.3-5.14-1.86-10.31-5.678-5.2-4.098-12.33-13.903-20.65-17.624-8.52-3.563-10.98-2.458-29.64-4.004-18.85-1.64-45.62-3.721-81.88-5.99 6.97-1.105 13.97-2.208 20.97-3.343z"/>
		<path id="path25" stroke-width=".036" d="m287.06 52.582c8.71 0.536 17.31-0.536 26.3-3.342 8.89-2.837 17.84-7.188 26.99-13.304-4.54 7.913-11.04 13.115-19.99 15.953-9.05 2.774-19.86 2.963-33.3 0.693z"/>
		<path id="path27" stroke-width=".036" d="m34.053 133.39c-0.599 0.03-1.765-10.12-1.324-15.64 0.347-5.52 1.482-11.98 3.657-17.31 2.112-5.548 5.392-10.593 8.986-15.006 3.5-4.382 7.535-7.914 11.98-10.972 4.383-3.184 8.387-5.454 14.314-7.661 5.833-2.302 17.215-5.17 20.651-5.675 3.216-0.441 2.554 1.104-0.662 2.68-3.343 1.45-12.359 3.122-18.665 5.991-6.337 2.743-13.116 5.77-18.633 10.657-5.644 4.917-11.224 12.39-14.313 18.633-3.153 6.183-3.027 12.133-4.004 18.003-1.072 5.74-1.451 16.11-1.987 16.3z"/>
		<polygon id="polygon29" stroke-width=".9978" points="90.678 180.08 251.75 180.08 251.75 198.12 90.678 198.12"/>
		<polygon id="polygon31" stroke-width=".9978" points="90.678 195.34 251.75 195.34 251.75 197.1 90.678 197.1"/>
		<path id="path33" stroke-width=".036" d="m124.85 98.36l-1.35-0.032c-26.201-0.03-33.862 17.432-33.862 38.942 0 21.53 15.162 38.97 33.862 38.97l1.35-0.04v-17.49c-15.54-0.19-18.16-10.16-18.16-21.85 0-11.7 3.57-21.13 18.16-21.03v-17.47z"/>
		<path id="path35" stroke-width=".9978" d="m124.85 169.08c-2.27 0.22-4.69 0.06-7.15-0.6-2.52-0.66-5.46-1.86-7.82-3.25-2.43-1.51-5.71-5.17-6.56-5.52-0.85-0.5-0.22 1.83 1.17 3.25 1.23 1.45 4.06 4.1 6.33 5.52 2.24 1.29 4.42 2.05 6.88 2.61 2.36 0.54 4.66 0.73 7.15 0.7v-2.71z"/>
		<path id="path37" stroke-width=".036" d="m189.46 67.558c5.07 1.576 10.4 2.396 15.76 2.396 5.33 0 10.66-0.82 15.73-2.396v143.99c-5.07 1.57-10.4 2.39-15.73 2.39-5.36 0-10.69-0.82-15.76-2.39v-143.99z"/>
		<polygon id="polygon39" stroke-width=".036" points="200.87 38.52 209.1 38.52 209.1 57.122 200.87 57.122"/>
		<path id="path41" stroke-width=".036" d="m193.99 39.056c3.76 0.915 7.26 1.324 11.17 1.324 3.87 0 7.37-0.41 11.12-1.324v-7.409c-3.75 0.882-7.25 1.324-11.12 1.324-3.91 0-7.41-0.441-11.17-1.324v7.409z"/>
		<path id="path43" stroke-width=".036" d="m196.33 30.165c2.99 0.82 5.74 1.198 8.79 1.198 3.06 0 5.84-0.378 8.83-1.198-2.99-0.788-5.77-1.167-8.83-1.167-3.05 0.001-5.8 0.379-8.79 1.167z"/>
		<path id="path45" stroke-width=".036" d="m196.36 29.976v0.01c2.87 0.685 5.81 1.031 8.76 1.031 2.96 0 5.9-0.346 8.77-1.031l0.06 0.053 2.33 1.608-0.03 0.016c-3.64 0.869-7.38 1.308-11.13 1.308-3.74 0-7.48-0.438-11.12-1.308v-0.016l2.33-1.608 0.03-0.063z"/>
		<path id="path47" stroke-width=".036" d="m189.39 210.38c5.08 1.58 10.41 2.36 15.73 2.36 5.33 0 10.66-0.78 15.77-2.36l0.53 0.47c-5.39 1.67-10.65 2.62-16.3 2.62-5.64 0-10.87-0.88-16.26-2.55l0.53-0.54z"/>
		<path id="path49" stroke-width=".036" d="m188.89 210.95s8.01 2.52 16.14 2.52c8.13-0.03 16.43-2.62 16.43-2.62v3.94s-8.3 2.59-16.43 2.62-16.14-2.52-16.14-2.52v-3.94z"/>
		<polygon id="polygon51" stroke-width=".036" points="189.86 212.02 189.86 214.44 190.02 214.44 190.02 212.02"/>
		<polygon id="polygon53" stroke-width=".036" points="190.37 212.18 190.37 214.6 190.53 214.6 190.53 212.18"/>
		<polygon id="polygon55" stroke-width=".036" points="190.84 212.3 190.84 214.73 191 214.73 191 212.3"/>
		<polygon id="polygon57" stroke-width=".036" points="191.35 212.46 191.35 214.89 191.5 214.89 191.5 212.46"/>
		<polygon id="polygon59" stroke-width=".036" points="191.85 212.59 191.85 215.01 192.01 215.01 192.01 212.59"/>
		<polygon id="polygon61" stroke-width=".036" points="192.35 212.71 192.35 215.14 192.48 215.14 192.48 212.71"/>
		<polygon id="polygon63" stroke-width=".036" points="192.83 212.81 192.83 215.27 192.99 215.27 192.99 212.81"/>
		<polygon id="polygon65" stroke-width=".036" points="193.33 212.93 193.33 215.36 193.49 215.36 193.49 212.93"/>
		<polygon id="polygon67" stroke-width=".036" points="193.84 213.06 193.84 215.49 193.99 215.49 193.99 213.06"/>
		<polygon id="polygon69" stroke-width=".036" points="194.34 213.15 194.34 215.58 194.5 215.58 194.5 213.15"/>
		<polygon id="polygon71" stroke-width=".036" points="194.85 213.25 194.85 215.68 195 215.68 195 213.25"/>
		<polygon id="polygon73" stroke-width=".036" points="195.35 213.34 195.35 215.77 195.51 215.77 195.51 213.34"/>
		<polygon id="polygon75" stroke-width=".036" points="195.85 213.44 195.85 215.86 196.01 215.86 196.01 213.44"/>
		<polygon id="polygon77" stroke-width=".036" points="196.36 213.53 196.36 215.96 196.52 215.96 196.52 213.53"/>
		<polygon id="polygon79" stroke-width=".036" points="196.86 213.6 196.86 216.05 197.02 216.05 197.02 213.6"/>
		<polygon id="polygon81" stroke-width=".036" points="197.37 213.69 197.37 216.12 197.52 216.12 197.52 213.69"/>
		<polygon id="polygon83" stroke-width=".036" points="197.9 213.75 197.9 216.18 198.03 216.18 198.03 213.75"/>
		<polygon id="polygon85" stroke-width=".036" points="198.41 213.82 198.41 216.24 198.54 216.24 198.54 213.82"/>
		<polygon id="polygon87" stroke-width=".036" points="198.91 213.88 198.91 216.31 199.07 216.31 199.07 213.88"/>
		<polygon id="polygon89" stroke-width=".036" points="199.42 213.94 199.42 216.37 199.57 216.37 199.57 213.94"/>
		<polygon id="polygon91" stroke-width=".036" points="199.92 214 199.92 216.43 200.08 216.43 200.08 214"/>
		<polygon id="polygon93" stroke-width=".036" points="200.46 214.04 200.46 216.46 200.58 216.46 200.58 214.04"/>
		<polygon id="polygon95" stroke-width=".036" points="200.96 214.07 200.96 216.53 201.12 216.53 201.12 214.07"/>
		<polygon id="polygon97" stroke-width=".036" points="201.47 214.13 201.47 216.56 201.62 216.56 201.62 214.13"/>
		<polygon id="polygon99" stroke-width=".036" points="201.97 214.16 201.97 216.59 202.13 216.59 202.13 214.16"/>
		<polygon id="polygon101" stroke-width=".036" points="202.48 214.16 202.48 216.62 202.63 216.62 202.63 214.16"/>
		<polygon id="polygon103" stroke-width=".036" points="203.01 214.19 203.01 216.62 203.17 216.62 203.17 214.19"/>
		<polygon id="polygon105" stroke-width=".036" points="203.52 214.22 203.52 216.65 203.67 216.65 203.67 214.22"/>
		<polygon id="polygon107" stroke-width=".036" points="204.02 214.22 204.02 216.65 204.18 216.65 204.18 214.22"/>
		<polygon id="polygon109" stroke-width=".036" points="204.56 214.22 204.56 216.68 204.68 216.68 204.68 214.22"/>
		<polygon id="polygon111" stroke-width=".036" points="205.06 214.22 205.06 216.68 205.22 216.68 205.22 214.22"/>
		<polygon id="polygon113" stroke-width=".036" points="205.56 214.22 205.56 216.68 205.72 216.68 205.72 214.22"/>
		<polygon id="polygon115" stroke-width=".036" points="206.07 214.22 206.07 216.65 206.23 216.65 206.23 214.22"/>
		<polygon id="polygon117" stroke-width=".036" points="206.6 214.22 206.6 216.65 206.76 216.65 206.76 214.22"/>
		<polygon id="polygon119" stroke-width=".036" points="207.11 214.19 207.11 216.62 207.27 216.62 207.27 214.19"/>
		<polygon id="polygon121" stroke-width=".036" points="207.62 214.19 207.62 216.62 207.77 216.62 207.77 214.19"/>
		<polygon id="polygon123" stroke-width=".036" points="208.15 214.16 208.12 216.59 208.28 216.59 208.28 214.16"/>
		<polygon id="polygon125" stroke-width=".036" points="208.66 214.13 208.66 216.56 208.81 216.56 208.81 214.13"/>
		<polygon id="polygon127" stroke-width=".036" points="209.16 214.1 209.16 216.53 209.32 216.53 209.32 214.1"/>
		<polygon id="polygon129" stroke-width=".036" points="209.66 214.04 209.66 216.46 209.82 216.46 209.82 214.04"/>
		<polygon id="polygon131" stroke-width=".036" points="210.17 214 210.17 216.43 210.33 216.43 210.33 214"/>
		<polygon id="polygon133" stroke-width=".036" points="210.7 213.94 210.7 216.37 210.83 216.37 210.83 213.94"/>
		<polygon id="polygon135" stroke-width=".036" points="211.21 213.88 211.21 216.31 211.37 216.31 211.37 213.88"/>
		<polygon id="polygon137" stroke-width=".036" points="211.71 213.82 211.71 216.24 211.87 216.24 211.87 213.82"/>
		<polygon id="polygon139" stroke-width=".036" points="212.22 213.75 212.22 216.18 212.38 216.18 212.38 213.75"/>
		<polygon id="polygon141" stroke-width=".036" points="212.72 213.69 212.72 216.12 212.88 216.12 212.88 213.69"/>
		<polygon id="polygon143" stroke-width=".036" points="213.23 213.6 213.23 216.05 213.38 216.05 213.38 213.6"/>
		<polygon id="polygon145" stroke-width=".036" points="213.73 213.53 213.73 215.96 213.89 215.96 213.89 213.53"/>
		<polygon id="polygon147" stroke-width=".036" points="214.24 213.44 214.27 215.86 214.39 215.86 214.39 213.44"/>
		<polygon id="polygon149" stroke-width=".036" points="214.77 213.34 214.74 215.77 214.9 215.77 214.9 213.34"/>
		<polygon id="polygon151" stroke-width=".036" points="215.28 213.25 215.24 215.68 215.4 215.68 215.4 213.25"/>
		<polygon id="polygon153" stroke-width=".036" points="215.75 213.15 215.75 215.58 215.91 215.58 215.91 213.15"/>
		<polygon id="polygon155" stroke-width=".036" points="216.25 213.06 216.25 215.49 216.41 215.49 216.41 213.06"/>
		<polygon id="polygon157" stroke-width=".036" points="216.76 212.93 216.76 215.36 216.92 215.36 216.92 212.93"/>
		<polygon id="polygon159" stroke-width=".036" points="217.26 212.81 217.26 215.27 217.42 215.27 217.42 212.81"/>
		<polygon id="polygon161" stroke-width=".036" points="217.77 212.71 217.77 215.14 217.92 215.14 217.92 212.71"/>
		<polygon id="polygon163" stroke-width=".036" points="218.27 212.59 218.27 215.01 218.43 215.01 218.43 212.59"/>
		<polygon id="polygon165" stroke-width=".036" points="218.78 212.46 218.78 214.89 218.9 214.89 218.9 212.46"/>
		<polygon id="polygon167" stroke-width=".036" points="219.25 212.3 219.25 214.76 219.41 214.76 219.41 212.3"/>
		<polygon id="polygon169" stroke-width=".036" points="219.75 212.18 219.75 214.6 219.91 214.6 219.91 212.18"/>
		<polygon id="polygon171" stroke-width=".036" points="220.26 212.02 220.26 214.48 220.38 214.48 220.38 212.02"/>
		<path id="path173" stroke-width=".036" d="m152.85 67.558c5.11 1.576 10.44 2.396 15.77 2.396 5.32 0 10.65-0.82 15.76-2.396v143.99c-5.11 1.57-10.44 2.39-15.76 2.39-5.33 0-10.66-0.82-15.77-2.39v-143.99z"/>
		<polygon id="polygon175" stroke-width=".036" points="164.3 38.52 172.49 38.52 172.49 57.122 164.3 57.122"/>
		<path id="path177" stroke-width=".036" d="m157.39 39.056c3.78 0.915 7.28 1.324 11.16 1.324s7.38-0.41 11.16-1.324v-7.409c-3.78 0.882-7.28 1.324-11.16 1.324s-7.38-0.441-11.16-1.324v7.409z"/>
		<path id="path179" stroke-width=".036" d="m159.76 30.134c2.96 0.756 5.73 1.135 8.79 1.135s5.83-0.379 8.8-1.135c-2.97-0.789-5.74-1.136-8.8-1.136-3.06 0.001-5.83 0.348-8.79 1.136z"/>
		<path id="path181" stroke-width=".036" d="m159.79 29.976l-0.01 0.01c2.87 0.685 5.82 1.031 8.77 1.031 2.96 0 5.9-0.346 8.78-1.031l0.02 0.053 2.36 1.608-0.02 0.016c-3.65 0.869-7.39 1.308-11.14 1.308s-7.49-0.438-11.13-1.308l-0.03-0.016 2.37-1.608 0.03-0.063z"/>
		<path id="path183" stroke-width=".036" d="m152.79 210.38c5.11 1.58 10.43 2.36 15.76 2.36s10.66-0.78 15.77-2.36l0.53 0.47c-5.39 1.67-10.65 2.62-16.3 2.62-5.64 0-10.91-0.88-16.3-2.55l0.54-0.54z"/>
		<path id="path185" stroke-width=".036" d="m152.28 210.95s8.04 2.52 16.18 2.52c8.13-0.03 16.39-2.62 16.39-2.62v3.94s-8.26 2.59-16.39 2.62c-8.14 0.03-16.18-2.52-16.18-2.52v-3.94z"/>
		<polygon id="polygon187" stroke-width=".036" points="153.29 212.02 153.29 214.44 153.45 214.44 153.42 212.02"/>
		<polygon id="polygon189" stroke-width=".036" points="153.76 212.18 153.76 214.6 153.92 214.6 153.92 212.18"/>
		<polygon id="polygon191" stroke-width=".036" points="154.27 212.3 154.27 214.73 154.43 214.73 154.43 212.3"/>
		<polygon id="polygon193" stroke-width=".036" points="154.77 212.46 154.77 214.89 154.9 214.89 154.93 212.46"/>
		<polygon id="polygon195" stroke-width=".036" points="155.25 212.59 155.25 215.01 155.4 215.01 155.4 212.59"/>
		<polygon id="polygon197" stroke-width=".036" points="155.75 212.71 155.75 215.14 155.91 215.14 155.91 212.71"/>
		<polygon id="polygon199" stroke-width=".036" points="156.26 212.81 156.26 215.27 156.41 215.27 156.41 212.81"/>
		<polygon id="polygon201" stroke-width=".036" points="156.76 212.93 156.76 215.36 156.92 215.36 156.92 212.93"/>
		<polygon id="polygon203" stroke-width=".036" points="157.26 213.06 157.26 215.49 157.42 215.49 157.42 213.06"/>
		<polygon id="polygon205" stroke-width=".036" points="157.77 213.15 157.77 215.58 157.93 215.58 157.93 213.15"/>
		<polygon id="polygon207" stroke-width=".036" points="158.27 213.25 158.27 215.68 158.43 215.68 158.43 213.25"/>
		<polygon id="polygon209" stroke-width=".036" points="158.78 213.34 158.78 215.77 158.94 215.77 158.94 213.34"/>
		<polygon id="polygon211" stroke-width=".036" points="159.28 213.44 159.28 215.86 159.44 215.86 159.44 213.44"/>
		<polygon id="polygon213" stroke-width=".036" points="159.79 213.53 159.79 215.96 159.94 215.96 159.94 213.53"/>
		<polygon id="polygon215" stroke-width=".036" points="160.29 213.6 160.29 216.05 160.45 216.05 160.45 213.6"/>
		<polygon id="polygon217" stroke-width=".036" points="160.8 213.69 160.8 216.12 160.95 216.12 160.95 213.69"/>
		<polygon id="polygon219" stroke-width=".036" points="161.3 213.75 161.3 216.18 161.46 216.18 161.46 213.75"/>
		<polygon id="polygon221" stroke-width=".036" points="161.8 213.82 161.8 216.24 161.96 216.24 161.96 213.82"/>
		<polygon id="polygon223" stroke-width=".036" points="162.31 213.88 162.34 216.31 162.47 216.31 162.47 213.88"/>
		<polygon id="polygon225" stroke-width=".036" points="162.84 213.94 162.84 216.37 162.97 216.37 163 213.94"/>
		<polygon id="polygon227" stroke-width=".036" points="163.35 214 163.35 216.43 163.51 216.43 163.51 214"/>
		<polygon id="polygon229" stroke-width=".036" points="163.85 214.04 163.85 216.46 164.01 216.46 164.01 214.04"/>
		<polygon id="polygon231" stroke-width=".036" points="164.36 214.07 164.36 216.53 164.52 216.53 164.52 214.07"/>
		<polygon id="polygon233" stroke-width=".036" points="164.9 214.13 164.9 216.56 165.02 216.56 165.02 214.13"/>
		<polygon id="polygon235" stroke-width=".036" points="165.4 214.16 165.4 216.59 165.56 216.59 165.56 214.16"/>
		<polygon id="polygon237" stroke-width=".036" points="165.9 214.16 165.9 216.62 166.06 216.62 166.06 214.16"/>
		<polygon id="polygon239" stroke-width=".036" points="166.41 214.19 166.41 216.62 166.56 216.62 166.56 214.19"/>
		<polygon id="polygon241" stroke-width=".036" points="166.94 214.22 166.94 216.65 167.07 216.65 167.07 214.22"/>
		<polygon id="polygon243" stroke-width=".036" points="167.45 214.22 167.45 216.65 167.6 216.65 167.6 214.22"/>
		<polygon id="polygon245" stroke-width=".036" points="167.95 214.22 167.95 216.68 168.11 216.68 168.11 214.22"/>
		<polygon id="polygon247" stroke-width=".036" points="168.46 214.22 168.46 216.68 168.62 216.68 168.62 214.22"/>
		<polygon id="polygon249" stroke-width=".036" points="168.99 214.22 168.99 216.68 169.12 216.68 169.15 214.22"/>
		<polygon id="polygon251" stroke-width=".036" points="169.5 214.22 169.5 216.65 169.66 216.65 169.66 214.22"/>
		<polygon id="polygon253" stroke-width=".036" points="170 214.22 170 216.65 170.16 216.65 170.16 214.22"/>
		<polygon id="polygon255" stroke-width=".036" points="170.54 214.19 170.54 216.62 170.66 216.62 170.66 214.19"/>
		<polygon id="polygon257" stroke-width=".036" points="171.04 214.19 171.04 216.62 171.2 216.62 171.2 214.19"/>
		<polygon id="polygon259" stroke-width=".036" points="171.55 214.16 171.55 216.59 171.7 216.59 171.7 214.16"/>
		<polygon id="polygon261" stroke-width=".036" points="172.05 214.13 172.05 216.56 172.21 216.56 172.21 214.13"/>
		<polygon id="polygon263" stroke-width=".036" points="172.59 214.1 172.59 216.53 172.71 216.53 172.71 214.1"/>
		<polygon id="polygon265" stroke-width=".036" points="173.09 214.04 173.09 216.46 173.25 216.46 173.25 214.04"/>
		<polygon id="polygon267" stroke-width=".036" points="173.6 214 173.6 216.43 173.75 216.43 173.75 214"/>
		<polygon id="polygon269" stroke-width=".036" points="174.1 213.94 174.1 216.37 174.26 216.37 174.26 213.94"/>
		<polygon id="polygon271" stroke-width=".036" points="174.6 213.88 174.6 216.31 174.76 216.31 174.76 213.88"/>
		<polygon id="polygon273" stroke-width=".036" points="175.14 213.82 175.14 216.24 175.27 216.24 175.27 213.82"/>
		<polygon id="polygon275" stroke-width=".036" points="175.64 213.75 175.64 216.18 175.8 216.18 175.8 213.75"/>
		<polygon id="polygon277" stroke-width=".036" points="176.15 213.69 176.15 216.12 176.31 216.12 176.31 213.69"/>
		<polygon id="polygon279" stroke-width=".036" points="176.65 213.6 176.65 216.05 176.81 216.05 176.81 213.6"/>
		<polygon id="polygon281" stroke-width=".036" points="177.16 213.53 177.16 215.96 177.32 215.96 177.32 213.53"/>
		<polygon id="polygon283" stroke-width=".036" points="177.66 213.44 177.66 215.86 177.82 215.86 177.82 213.44"/>
		<polygon id="polygon285" stroke-width=".036" points="178.17 213.34 178.17 215.77 178.32 215.77 178.32 213.34"/>
		<polygon id="polygon287" stroke-width=".036" points="178.67 213.25 178.67 215.68 178.83 215.68 178.83 213.25"/>
		<polygon id="polygon289" stroke-width=".036" points="179.18 213.15 179.18 215.58 179.33 215.58 179.33 213.15"/>
		<polygon id="polygon291" stroke-width=".036" points="179.68 213.06 179.68 215.49 179.84 215.49 179.84 213.06"/>
		<polygon id="polygon293" stroke-width=".036" points="180.19 212.93 180.19 215.36 180.34 215.36 180.34 212.93"/>
		<polygon id="polygon295" stroke-width=".036" points="180.69 212.81 180.69 215.27 180.85 215.27 180.85 212.81"/>
		<polygon id="polygon297" stroke-width=".036" points="181.19 212.71 181.19 215.14 181.32 215.14 181.32 212.71"/>
		<polygon id="polygon299" stroke-width=".036" points="181.67 212.59 181.67 215.01 181.82 215.01 181.82 212.59"/>
		<polygon id="polygon301" stroke-width=".036" points="182.17 212.46 182.17 214.89 182.33 214.89 182.33 212.46"/>
		<polygon id="polygon303" stroke-width=".036" points="182.68 212.3 182.68 214.76 182.83 214.76 182.83 212.3"/>
		<polygon id="polygon305" stroke-width=".036" points="183.15 212.18 183.18 214.6 183.31 214.6 183.31 212.18"/>
		<polygon id="polygon307" stroke-width=".036" points="183.65 212.02 183.65 214.48 183.81 214.48 183.81 212.02"/>
		<path id="path309" stroke-width=".036" d="m116.28 67.558c5.1 1.576 10.43 2.396 15.76 2.396s10.66-0.82 15.73-2.396v143.99c-5.07 1.57-10.4 2.39-15.73 2.39s-10.65-0.82-15.76-2.39v-143.99z"/>
		<polygon id="polygon311" stroke-width=".036" points="127.69 38.52 135.92 38.52 135.92 57.122 127.69 57.122"/>
		<path id="path313" stroke-width=".036" d="m120.82 39.056c3.78 0.915 7.28 1.324 11.16 1.324s7.38-0.41 11.16-1.324v-7.409c-3.78 0.882-7.28 1.324-11.16 1.324s-7.38-0.441-11.16-1.324v7.409z"/>
		<path id="path315" stroke-width=".036" d="m123.18 30.071c2.97 0.757 5.74 1.103 8.8 1.103s5.8-0.346 8.8-1.103c-3-0.726-5.74-1.073-8.8-1.073s-5.83 0.348-8.8 1.073z"/>
		<path id="path317" stroke-width=".036" d="m123.18 29.976v0.01c2.87 0.685 5.82 1.031 8.77 1.031s5.89-0.346 8.77-1.031l0.06 0.053 2.36 1.608-0.02 0.016c-3.65 0.869-7.39 1.308-11.14 1.308s-7.49-0.438-11.14-1.308l-0.02-0.016 2.36-1.608v-0.063z"/>
		<path id="path319" stroke-width=".036" d="m116.22 210.38c5.07 1.58 10.4 2.36 15.73 2.36 5.36 0 10.69-0.78 15.76-2.36l0.57 0.47c-5.42 1.67-10.66 2.62-16.33 2.62-5.65 0-10.88-0.88-16.27-2.55l0.54-0.54z"/>
		<path id="path321" stroke-width=".036" d="m115.71 210.95s8.01 2.52 16.14 2.52c8.14-0.03 16.43-2.62 16.43-2.62v3.94s-8.29 2.59-16.43 2.62c-8.13 0.03-16.14-2.52-16.14-2.52v-3.94z"/>
		<polygon id="polygon323" stroke-width=".036" points="116.69 212.02 116.69 214.44 116.85 214.44 116.85 212.02"/>
		<polygon id="polygon325" stroke-width=".036" points="117.19 212.18 117.19 214.6 117.35 214.6 117.35 212.18"/>
		<polygon id="polygon327" stroke-width=".036" points="117.7 212.3 117.7 214.73 117.82 214.73 117.82 212.3"/>
		<polygon id="polygon329" stroke-width=".036" points="118.17 212.46 118.17 214.89 118.33 214.89 118.33 212.46"/>
		<polygon id="polygon331" stroke-width=".036" points="118.67 212.59 118.67 215.01 118.83 215.01 118.83 212.59"/>
		<polygon id="polygon333" stroke-width=".036" points="119.18 212.71 119.18 215.14 119.34 215.14 119.34 212.71"/>
		<polygon id="polygon335" stroke-width=".036" points="119.68 212.81 119.68 215.27 119.81 215.27 119.81 212.81"/>
		<polygon id="polygon337" stroke-width=".036" points="120.19 212.93 120.19 215.36 120.31 215.36 120.31 212.93"/>
		<polygon id="polygon339" stroke-width=".036" points="120.66 213.06 120.66 215.49 120.82 215.49 120.82 213.06"/>
		<polygon id="polygon341" stroke-width=".036" points="121.16 213.15 121.16 215.58 121.32 215.58 121.32 213.15"/>
		<polygon id="polygon343" stroke-width=".036" points="121.67 213.25 121.67 215.68 121.83 215.68 121.83 213.25"/>
		<polygon id="polygon345" stroke-width=".036" points="122.17 213.34 122.17 215.77 122.33 215.77 122.33 213.34"/>
		<polygon id="polygon347" stroke-width=".036" points="122.68 213.44 122.68 215.86 122.84 215.86 122.84 213.44"/>
		<polygon id="polygon349" stroke-width=".036" points="123.18 213.53 123.18 215.96 123.34 215.96 123.34 213.53"/>
		<polygon id="polygon351" stroke-width=".036" points="123.69 213.6 123.72 216.05 123.84 216.05 123.84 213.6"/>
		<polygon id="polygon353" stroke-width=".036" points="124.22 213.69 124.22 216.12 124.35 216.12 124.35 213.69"/>
		<polygon id="polygon355" stroke-width=".036" points="124.73 213.75 124.73 216.18 124.88 216.18 124.88 213.75"/>
		<polygon id="polygon357" stroke-width=".036" points="125.23 213.82 125.23 216.24 125.39 216.24 125.39 213.82"/>
		<polygon id="polygon359" stroke-width=".036" points="125.74 213.88 125.74 216.31 125.89 216.31 125.89 213.88"/>
		<polygon id="polygon361" stroke-width=".036" points="126.24 213.94 126.24 216.37 126.4 216.37 126.4 213.94"/>
		<polygon id="polygon363" stroke-width=".036" points="126.75 214 126.75 216.43 126.9 216.43 126.9 214"/>
		<polygon id="polygon365" stroke-width=".036" points="127.28 214.04 127.28 216.46 127.44 216.46 127.44 214.04"/>
		<polygon id="polygon367" stroke-width=".036" points="127.79 214.07 127.79 216.53 127.94 216.53 127.94 214.07"/>
		<polygon id="polygon369" stroke-width=".036" points="128.29 214.13 128.29 216.56 128.45 216.56 128.45 214.13"/>
		<polygon id="polygon371" stroke-width=".036" points="128.79 214.16 128.79 216.59 128.95 216.59 128.95 214.16"/>
		<polygon id="polygon373" stroke-width=".036" points="129.33 214.16 129.33 216.62 129.46 216.62 129.46 214.16"/>
		<polygon id="polygon375" stroke-width=".036" points="129.84 214.19 129.84 216.62 129.99 216.62 129.99 214.19"/>
		<polygon id="polygon377" stroke-width=".036" points="130.34 214.22 130.34 216.65 130.5 216.65 130.5 214.22"/>
		<polygon id="polygon379" stroke-width=".036" points="130.84 214.22 130.84 216.65 131 216.65 131 214.22"/>
		<polygon id="polygon381" stroke-width=".036" points="131.38 214.22 131.38 216.68 131.54 216.68 131.54 214.22"/>
		<polygon id="polygon383" stroke-width=".036" points="131.88 214.22 131.88 216.68 132.04 216.68 132.04 214.22"/>
		<polygon id="polygon385" stroke-width=".036" points="132.39 214.22 132.39 216.68 132.55 216.68 132.55 214.22"/>
		<polygon id="polygon387" stroke-width=".036" points="132.92 214.22 132.92 216.65 133.05 216.65 133.05 214.22"/>
		<polygon id="polygon389" stroke-width=".036" points="133.43 214.22 133.43 216.65 133.59 216.65 133.59 214.22"/>
		<polygon id="polygon391" stroke-width=".036" points="133.93 214.19 133.93 216.62 134.09 216.62 134.09 214.19"/>
		<polygon id="polygon393" stroke-width=".036" points="134.44 214.19 134.44 216.62 134.6 216.62 134.6 214.19"/>
		<polygon id="polygon395" stroke-width=".036" points="134.97 214.16 134.97 216.59 135.1 216.59 135.13 214.16"/>
		<polygon id="polygon397" stroke-width=".036" points="135.48 214.13 135.48 216.56 135.64 216.56 135.64 214.13"/>
		<polygon id="polygon399" stroke-width=".036" points="135.98 214.1 135.98 216.53 136.14 216.53 136.14 214.1"/>
		<polygon id="polygon401" stroke-width=".036" points="136.49 214.04 136.49 216.46 136.64 216.46 136.64 214.04"/>
		<polygon id="polygon403" stroke-width=".036" points="137.02 214 137.02 216.43 137.15 216.43 137.15 214"/>
		<polygon id="polygon405" stroke-width=".036" points="137.53 213.94 137.53 216.37 137.69 216.37 137.69 213.94"/>
		<polygon id="polygon407" stroke-width=".036" points="138.03 213.88 138.03 216.31 138.19 216.31 138.19 213.88"/>
		<polygon id="polygon409" stroke-width=".036" points="138.54 213.82 138.54 216.24 138.7 216.24 138.7 213.82"/>
		<polygon id="polygon411" stroke-width=".036" points="139.04 213.75 139.04 216.18 139.2 216.18 139.2 213.75"/>
		<polygon id="polygon413" stroke-width=".036" points="139.54 213.69 139.58 216.12 139.7 216.12 139.7 213.69"/>
		<polygon id="polygon415" stroke-width=".036" points="140.08 213.6 140.08 216.05 140.21 216.05 140.21 213.6"/>
		<polygon id="polygon417" stroke-width=".036" points="140.59 213.53 140.59 215.96 140.71 215.96 140.71 213.53"/>
		<polygon id="polygon419" stroke-width=".036" points="141.09 213.44 141.09 215.86 141.25 215.86 141.25 213.44"/>
		<polygon id="polygon421" stroke-width=".036" points="141.6 213.34 141.6 215.77 141.75 215.77 141.75 213.34"/>
		<polygon id="polygon423" stroke-width=".036" points="142.1 213.25 142.1 215.68 142.23 215.68 142.26 213.25"/>
		<polygon id="polygon425" stroke-width=".036" points="142.6 213.15 142.6 215.58 142.73 215.58 142.73 213.15"/>
		<polygon id="polygon427" stroke-width=".036" points="143.11 213.06 143.11 215.49 143.23 215.49 143.23 213.06"/>
		<polygon id="polygon429" stroke-width=".036" points="143.58 212.93 143.61 215.36 143.74 215.36 143.74 212.93"/>
		<polygon id="polygon431" stroke-width=".036" points="144.08 212.81 144.08 215.27 144.24 215.27 144.24 212.81"/>
		<polygon id="polygon433" stroke-width=".036" points="144.59 212.71 144.59 215.14 144.75 215.14 144.75 212.71"/>
		<polygon id="polygon435" stroke-width=".036" points="145.09 212.59 145.09 215.01 145.25 215.01 145.25 212.59"/>
		<polygon id="polygon437" stroke-width=".036" points="145.6 212.46 145.6 214.89 145.76 214.89 145.76 212.46"/>
		<polygon id="polygon439" stroke-width=".036" points="146.07 212.3 146.07 214.76 146.23 214.76 146.23 212.3"/>
		<polygon id="polygon441" stroke-width=".036" points="146.58 212.18 146.58 214.6 146.73 214.6 146.73 212.18"/>
		<polygon id="polygon443" stroke-width=".036" points="147.08 212.02 147.08 214.48 147.24 214.48 147.24 212.02"/>
		<polygon id="polygon445" stroke-width=".9978" points="101.81 159.56 136.77 159.56 136.77 174.75 101.81 174.75"/>
		<polygon id="polygon447" stroke-width=".9978" points="101.81 130.36 136.77 130.36 136.77 145.56 101.81 145.56"/>
		<path id="path449" stroke-width=".036" d="m144.59 130.33c20.11 0.28 25.16 9.58 25.19 22.23 0.03 8.82-5.42 22.44-25.63 22.57l0.28-15.61c5.43 0.32 9.87-2.11 9.97-7.44 0.09-4.85-4.32-6.62-9.75-6.52l-0.06-15.23z"/>
		<polygon id="polygon451" stroke-width=".9978" points="139.36 77.047 240.31 77.047 240.31 92.213 139.36 92.213"/>
		<polygon id="polygon453" stroke-width=".9978" points="109.69 188.59 240.31 188.59 240.31 203.79 109.69 203.79"/>
		<polygon id="polygon455" stroke-width=".9978" points="110.54 102.62 248.35 102.62 248.35 117.81 110.54 117.81"/>
		<path id="path457" stroke-width=".036" d="m92.916 102.77c-39.536-0.06-51.8 28.41-51.769 49.79-0.031 35.24 16.742 51.26 51.485 51.23l-0.126-15.04c-26.546 0-35.878-15.8-35.878-35.25 0.031-23.61 12.769-35.44 35.816-35.94l0.472-14.79z"/>
		<polygon id="polygon459" stroke-width=".9978" points="92.223 102.11 110.76 102.11 110.76 118.13 92.223 118.13"/>
		<polygon id="polygon461" stroke-width=".036" points="92.223 102.11 92.223 118.13 93.042 118.13 93.042 102.11"/>
		<polygon id="polygon463" stroke-width=".036" points="110.76 102.11 110.76 118.13 110.04 117.78 110.04 102.18"/>
		<polygon id="polygon465" stroke-width=".9978" points="92.223 188.18 110.76 188.18 110.76 204.2 92.223 204.2"/>
		<polygon id="polygon467" stroke-width=".036" points="92.223 188.18 92.223 204.2 93.042 204.2 93.042 188.18"/>
		<polygon id="polygon469" stroke-width=".036" points="110.76 188.18 110.76 204.2 110.04 203.88 110.04 188.28"/>
		<path id="path471" stroke-width=".036" d="m80.336 77.206c-2.522-0.315-5.234-0.536-8.386-0.789-3.248-0.252-6.716-0.599-10.405-0.662-3.846-0.158-7.945-0.158-11.444 0-3.5 0.094-6.842 0.694-9.048 0.946-2.176 0.189-3.468 0.314-3.878 0.378l-1.324-1.451c-0.347 0.536-1.009 0.978-1.86 1.198-0.882 0.126-2.112 0.126-3.342 0.126-1.293-0.031-2.711-0.031-4.256 0-0.126-1.041-0.441-2.018-1.198-2.933-0.788-1.04-1.892-2.081-3.184-2.647-1.292-0.631-2.806-0.662-4.54-0.82-1.734-0.252-3.689-0.378-5.864-0.378 0.189-0.662 0.063-1.198-0.252-1.482-0.347-0.346-1.009-0.441-1.86-0.41 0.031-0.914-0.063-1.576-0.41-2.112-0.41-0.567-0.82-0.883-1.608-1.072-0.852-0.221-2.239-0.063-3.185 0-1.104-0.095-1.955-0.379-2.68-0.126-0.693 0.284-1.135 0.82-1.324 1.608-0.284 0.6-0.284-2.932-0.252 2.522-0.032 5.581-0.032 24.466 0.126 30.141-0.032 5.357-0.032 1.857 0.252 2.517 0.252 0.7 0.662 1.23 1.355 1.61 0.662 0.19 1.545-0.09 2.648-0.12 0.915-0.03 2.396 0.12 3.216 0 0.757-0.23 1.167-0.54 1.577-1.07 0.252-0.54 0.504-1.3 0.41-2.15 0.852 0.03 1.513-0.094 1.86-0.378 0.315-0.379 0.441-0.757 0.252-1.482 2.175-0.094 4.13-0.188 5.864-0.409 1.734-0.284 3.247-0.221 4.54-0.789 1.292-0.662 2.396-1.701 3.185-2.647 0.756-0.946 1.072-1.923 1.198-2.933 1.608-0.032 2.995-0.032 4.287 0 1.262-0.063 2.365-0.063 3.311 0.126 0.883 0.189 1.419 0.63 1.86 1.198l1.355-1.451c0.378 0 1.703 0.126 3.847 0.378 2.207 0.158 5.549 0.757 9.048 0.946 3.5 0.063 7.598 0.063 11.445 0 3.688-0.189 7.157-0.41 10.404-0.662 3.153-0.252 5.865-0.568 8.387-0.819l-0.127-13.902z"/>
		<path id="path473" stroke-width=".036" d="m24.059 87.767h-21.218c-0.221 1.608-0.221 2.806 0 3.72 0.095 0.819 0.315 1.292 1.009 1.545 0.693 0.158 2.144 0.063 3.121-0.284 0.82-0.41 0.788-1.481 1.986-1.859 1.135-0.504 2.743-0.411 4.698-0.568 1.923-0.252 4.887-0.157 6.716-0.568 1.733-0.441 2.963-1.103 3.688-1.986z"/>
		<path id="path475" stroke-width=".036" d="m23.775 78.529h-20.65c-0.063-1.576 0.031-2.774 0.284-3.847 0.158-1.197 0.536-1.923 1.135-2.427 0.473-0.473 1.325-0.473 2.302-0.126 1.009 0.315 2.239 1.766 3.688 2.271 1.262 0.347 2.68 0.41 4.257 0.567 1.513 0.063 3.594-0.032 5.139 0.567 1.449 0.568 2.773 1.608 3.845 2.995z"/>
		<polygon id="polygon477" stroke-width=".9978" points="79.989 76.574 139.54 76.574 139.54 92.622 79.989 92.622"/>
		<polygon id="polygon479" stroke-width=".036" points="79.989 76.574 79.989 92.622 82.575 92.622 82.575 76.574"/>
		<polygon id="polygon481" stroke-width=".036" points="139.54 76.574 139.54 92.622 138.57 92.402 138.57 76.922"/>
		<path id="path483" stroke-width=".036" d="m240.31 77.047c49.85-0.157 60.37 29.543 60.37 63.373 0 33.8-14.97 63.06-60.37 63.37v-15.2c41.62 0 43.29-23.89 43.82-48.39 0.63-29.92-7.12-47.956-43.82-47.987v-15.166z"/>
		<polygon id="polygon485" stroke-width=".036" points="292.74 140.45 295.99 140.32 297.66 143.54 294.69 144.2"/>
		<polygon id="polygon487" stroke-width=".036" points="292.08 142.66 290.88 153.38 293.15 153.72 293.69 145.53"/>
		<polygon id="polygon489" stroke-width=".036" points="296.52 136.6 290.38 137.14 288.92 150.29 289.68 152.21 291.45 139.5 296.37 139.03"/>
		<path id="path491" stroke-width=".036" d="m300.28 141.33c1.1 0.1 2.04 0.67 2.96 1.45 0.82 0.79 1.73 2.05 2.27 3.41 0.38 1.32 0.66 2.68 0.47 4.19-0.22 1.36-1.07 2.84-1.7 3.94-0.69 0.95-1.54 1.64-2.43 2.21-0.98 0.53-2.05 0.94-3.34 1.23 0.57-5.46 1.17-10.94 1.77-16.43z"/>
		<path id="path493" stroke-width=".036" d="m298.65 143.69c2.94 0 5.32 2.55 5.32 5.7s-2.38 5.71-5.32 5.71-5.33-2.56-5.33-5.71 2.38-5.7 5.33-5.7"/>
		<path id="path495" stroke-width=".036" d="m264.24 83.448c-1.77-1.734-3.94-3.09-6.65-4.446-2.84-1.355-6.97-2.428-9.59-3.468-2.62-1.135-4.03-1.387-5.83-3.058-1.92-1.797-4.16-4.603-5.14-7.22-0.95-2.711-1.13-5.864-0.69-8.607 0.38-2.806 1.26-5.864 2.77-8.071 1.33-2.301 3.37-4.193 5.42-5.423 1.93-1.292 4.23-1.829 6.66-2.081 2.49-0.314 5.7 0.221 8.07 0.284 2.17-0.032 3.81 0.032 5.26-0.284 1.42-0.41 2.49-1.733 3.47-1.922 1.01-0.252 2.08-0.032 2.37 0.535 0.03 0.536-0.48 1.829-1.27 2.649-0.75 0.693-1.29 1.292-3.05 1.671-1.99 0.252-5.02 0.347-7.76 0.41-2.74 0.032-5.8-0.536-8.2 0-2.4 0.473-4.48 1.451-5.99 2.932-1.64 1.387-2.46 3.563-3.18 5.675-0.82 2.049-1.11 4.382-0.98 6.526 0.16 1.923 0.85 3.909 2.08 5.833 1.17 1.922 2.71 4.603 5.01 5.99 2.18 1.324 4.54 1.167 8.33 2.081 3.75 0.819 10.24 1.922 13.9 3.059 3.53 1.103 5.17 2.27 7.22 3.625 1.99 1.261 3.47 2.932 4.57 4.288 1.07 1.325 1.64 2.491 1.83 3.626l-0.98 0.946c-1.89-1.703-4.25-2.995-7.22-3.879-2.96-0.915-6.4-1.514-10.43-1.671z"/>
		<polygon id="polygon497" stroke-width=".9978" points="234.32 155.05 248.35 155.05 248.35 170.24 234.32 170.24"/>
		<path id="path499" stroke-width=".036" d="m248.35 102.62l1.35-0.04c26.2-0.03 33.86 15.17 33.86 33.83 0 18.7-15.16 33.87-33.86 33.87l-1.35-0.04v-15.19c15.54-0.19 18.16-8.83 18.16-18.98 0-10.19-3.53-18.35-18.16-18.26v-15.19z"/>
		<polygon id="polygon501" stroke-width=".9978" points="219.5 154.67 234.51 154.67 234.51 170.69 219.5 170.69"/>
		<polygon id="polygon503" stroke-width=".036" points="234.51 154.67 234.51 170.69 233.94 170.34 233.94 154.73"/>
		<polygon id="polygon505" stroke-width=".9978" points="181.86 143.1 193.11 143.1 193.11 159.11 181.86 159.11"/>
		<polygon id="polygon507" stroke-width=".036" points="252.64 202.34 253.17 204.86 265.47 202.24 264.93 199.72"/>
		<polygon id="polygon509" stroke-width=".036" points="255.35 204.26 256.23 208.39 264.08 206.72 263.2 202.59"/>
		<path id="path511" stroke-width=".036" d="m260.46 216.87c0 0.73 0.5 1.11 1.51 1.39 0.82 0.16 2.11 0.6 4.25 0 2.21-0.66 5.02-1.76 8.77-3.81 3.72-2.18 9.43-5.3 13.34-8.77 3.78-3.44 6.3-7.38 9.27-11.82 2.83-4.54 6.08-10.6 8.16-15.01 2.05-4.51 3.66-9.93 4.1-11.66 0.22-1.83-0.88-0.85-1.98 1.35-1.11 2.33-2.5 7.76-4.54 12.14-2.28 4.29-5.36 9.87-8.17 13.46-2.81 3.5-4.73 5.27-8.2 7.73-3.65 2.39-9.77 5.23-12.73 6.68-2.9 1.33-4.42 1.83-4.54 1.51-0.57-0.75-1.08-1.16-1.52-1.35-0.5-0.22-0.82-0.13-1.2 0.28-0.53 0.79-1.29 1.55-2.27 2.15-1.04 0.56-2.3 0.98-3.65 1.35-1.39 0.32-3.47 0.51-4.54 0.44-1.17-0.18-1.93-0.69-2.27-1.51-0.48 2.4-0.13 4.07 0.91 5.01 1.07 0.95 2.71 0.98 5.3 0.44z"/>
		<path id="path513" stroke-width=".036" d="m254.4 212.49c-0.63-0.85-0.88-2.96-0.16-3.78 0.64-0.89 1.99-0.51 3.94-1.07 1.83-0.64 5.68-2.34 7.29-2.43 1.54-0.22 1.67 0.94 1.95 1.67 0.22 0.76 0.32 1.58-0.44 2.58-0.91 0.89-2.77 1.99-4.26 2.72-1.54 0.66-3.18 1.07-4.54 1.22-1.48 0-3.15-0.18-3.78-0.91z"/>
		<polygon id="polygon515" stroke-width=".036" points="279.25 191.87 280.73 193.6 284.67 190.3 283.19 188.56"/>
		<polygon id="polygon517" stroke-width=".036" points="281.64 192.82 286.15 198.15 288.23 196.41 283.72 191.05"/>
		<path id="path519" stroke-width=".036" d="m286.56 200.89c0.98 1.17 2.74 1.32 3.94 0.35 1.2-1.01 1.32-2.78 0.35-3.98-1.01-1.16-2.78-1.32-3.97-0.34-1.17 1.01-1.33 2.77-0.32 3.97z"/>
		<path id="path521" stroke-width=".036" d="m287.13 200.38c0.72 0.89 2.02 0.98 2.9 0.26 0.85-0.73 0.98-2.02 0.22-2.87-0.73-0.89-2.02-0.98-2.87-0.25-0.85 0.72-0.98 2.01-0.25 2.86z"/>
		<path id="path523" stroke-width=".9978" d="m119.3 131.12c0.26-1.52 0.1-2.68-0.44-3.56-0.56-0.89-1.48-1.46-2.83-1.74-7.7 0-12.74-0.03-15.26 0-5.772 0.06-11.416 3.12-11.416 9.62 0 5.7 4.478 10.09 12.456 10.12v-15.2h17.5v0.76h-0.01z"/>
		<path id="path525" stroke-width=".9978" d="m119.3 160.31c0.26-1.48 0.1-2.65-0.44-3.53-0.56-0.88-1.48-1.48-2.83-1.76-7.7 0-12.74-0.04-15.26 0-5.772 0.09-11.416 3.15-11.416 9.64 0 5.68 4.478 10.06 12.456 10.12v-15.19h17.5v0.72h-0.01z"/>
		<path id="path527" stroke-width=".036" d="m289.5 195.39c2.65 0 4.8 2.14 4.8 4.76 0 2.63-2.15 4.77-4.8 4.77-2.64 0-4.79-2.14-4.79-4.77 0-2.62 2.15-4.76 4.79-4.76"/>
</g>
<metadata><rdf:RDF><cc:Work><dc:format>image/svg+xml</dc:format><dc:type rdf:resource="http://purl.org/dc/dcmitype/StillImage"/><cc:license rdf:resource="http://creativecommons.org/licenses/publicdomain/"/><dc:publisher><cc:Agent rdf:about="http://openclipart.org/"><dc:title>Openclipart</dc:title></cc:Agent></dc:publisher></cc:Work><cc:License rdf:about="http://creativecommons.org/licenses/publicdomain/"><cc:permits rdf:resource="http://creativecommons.org/ns#Reproduction"/><cc:permits rdf:resource="http://creativecommons.org/ns#Distribution"/><cc:permits rdf:resource="http://creativecommons.org/ns#DerivativeWorks"/></cc:License></rdf:RDF></metadata></svg>
